# xmcd
#
# Track frame offsets:
#	150
#	22980
#	34777
#	50985
#	68780
#	87324
#	102461
#	115764
#	134178
#	159968
#	173771
#	192854
#	208652
#	227145
#	242944
#	264370
#	281762
#	302122
#	319540
#
# Disc length: 4461
#
# Revision: 2
# Processed by: cddbd v1.5.1PL0 Copyright (c) Steve Scherf et al.
# Submitted via: CDex 1.30Release
# Normalized: r1:TDELIM( - )
#
DISCID=13116b13
DTITLE=The Hits - Country Greats
DYEAR=2001
DGENRE=Country
TTITLE0=Clay Walker - The Chain Of Love
TTITLE1=Alan Jackson - www.memory
TTITLE2=Tracy Byrd - A Good Way To Get On My Bad Side (With Mark Chesnutt)
TTITLE3=Billy Dean - Once In A While
TTITLE4=Brad Paisley - Two People Fell In Love
TTITLE5=Brooks and Dunn - Ain't Nothing 'Bout You
TTITLE6=Tracy Lawrence - Lessons Learned
TTITLE7=George Strait - Run
TTITLE8=Alan Jackson - Where Were You (When The World Stopped Turning)
TTITLE9=Toby Keith - I Wanna Talk About Me
TTITLE10=Lonestar - I'm Already There
TTITLE11=Charlie Daniels Band - This Ain't No Rag, It's A Flag
TTITLE12=Mark Wills - Back At One
TTITLE13=Tracy Lawrence - Texas Tornado
TTITLE14=Trace Adkins - I'm Tryin'
TTITLE15=Brooks and Dunn - The Long Goodbye
TTITLE16=Steve Holy - Blue Moon
TTITLE17=Aaron Tippin - Where The Stars And Stripes And The Eagle Fly
TTITLE18=Brad Paisley - Wrapped Around
EXTD=YEAR: 2001 ID3G:   2
EXTT0=
EXTT1=
EXTT2=
EXTT3=
EXTT4=
EXTT5=
EXTT6=
EXTT7=
EXTT8=
EXTT9=
EXTT10=
EXTT11=
EXTT12=
EXTT13=
EXTT14=
EXTT15=
EXTT16=
EXTT17=
EXTT18=
PLAYORDER=
